<svg height="512" viewBox="0 0 128 128" width="512" xmlns="http://www.w3.org/2000/svg"><g id="Outline"><g id="Outline-2" data-name="Outline"><path d="m73.028 62.177a5.71 5.71 0 0 0 5.5-5.7c-.015-1.366-.017-4.1 0-5.464a5.706 5.706 0 0 0 -5.5-5.7 5.533 5.533 0 0 0 -5.5 5.5v5.857a5.534 5.534 0 0 0 5.5 5.507zm-2.5-11.357a2.516 2.516 0 0 1 2.5-2.5 2.675 2.675 0 0 1 2.5 2.7c-.02 1.367-.017 4.1 0 5.466a2.682 2.682 0 0 1 -2.5 2.7 2.53 2.53 0 0 1 -2.5-2.5z"/><path d="m42.037 45.32a5.709 5.709 0 0 0 -5.5 5.7c.014 1.366 0 4.1 0 5.465a5.677 5.677 0 0 0 5.5 5.7 5.593 5.593 0 0 0 5.5-5.5c-.016-1.464 0-4.391 0-5.855a5.53 5.53 0 0 0 -5.5-5.51zm2.5 11.359a2.544 2.544 0 0 1 -2.612 2.495 2.646 2.646 0 0 1 -2.388-2.693c0-1.366.016-4.1 0-5.466a2.675 2.675 0 0 1 2.5-2.695 2.514 2.514 0 0 1 2.5 2.5c-.007 1.465-.023 4.394-.004 5.859z"/><path d="m57.533 32.875a7 7 0 1 0 -7-7 7.008 7.008 0 0 0 7 7zm0-11a4 4 0 1 1 -4 4 4 4 0 0 1 4-4z"/><path d="m112.11 71.563c3.105-4.105 2.937-9.227 2.7-16.128-.248-7.382-.428-12.715-4.648-16.921a14.5 14.5 0 0 0 -2.395-1.919 60.358 60.358 0 0 0 -13.304-20.582c-10.153-10.245-23.263-15.888-36.912-15.888s-26.768 5.643-36.923 15.889a60.375 60.375 0 0 0 -13.266 20.5 14.593 14.593 0 0 0 -2.529 2.005c-4.22 4.201-4.4 9.534-4.648 16.916-.25 7.434-.431 12.8 3.48 17.064a14.716 14.716 0 0 0 6.891 4.121c3.409 15.144 15.472 25.9 33.268 29.207a4.452 4.452 0 0 0 -.291 1.548v4a4.5 4.5 0 0 0 4.5 4.5h13.645c6.771 7.366 17.393 12.125 29.322 12.125 20.4 0 37-13.907 37-31 0-10.522-6.295-19.831-15.89-25.437zm-4.061-30.924c3.38 3.368 3.534 7.954 3.768 14.9.235 6.981.371 11.284-2.4 14.593a39.927 39.927 0 0 0 -3.9-1.643c.007-.281.023-.558.024-.843l.032-9.955a51.544 51.544 0 0 0 -4.094-20.437 13.006 13.006 0 0 1 6.57 3.385zm-85.289-22.514c9.586-9.673 21.941-15 34.791-15s25.2 5.327 34.781 15a57.333 57.333 0 0 1 11.4 16.607 20.022 20.022 0 0 0 -3.788-.766 53.688 53.688 0 0 0 -9.8-13.657c-9-9.084-20.577-14.086-32.6-14.086s-23.6 5-32.6 14.086a53.7 53.7 0 0 0 -9.794 13.646 20.257 20.257 0 0 0 -3.777.742 57.412 57.412 0 0 1 11.387-16.572zm-13.195 49.518a42.937 42.937 0 0 0 .379 5.585 11.254 11.254 0 0 1 -4.07-2.759c-3.081-3.354-2.934-7.713-2.691-14.934.234-6.942.388-11.528 3.768-14.9a13.1 13.1 0 0 1 6.689-3.415 51.531 51.531 0 0 0 -4.107 20.46zm3-.01-.032-9.972a49.864 49.864 0 0 1 14.548-35.241c8.432-8.51 19.252-13.2 30.468-13.2s22.036 4.687 30.469 13.2a49.868 49.868 0 0 1 14.547 35.25l-.032 9.88a43.161 43.161 0 0 0 -9.552-1.5 37.442 37.442 0 0 0 1.433-15.42 17.615 17.615 0 0 0 -17.486-15.855 18.759 18.759 0 0 0 -10.441 2.894 15.9 15.9 0 0 1 -8.954 2.506 15.9 15.9 0 0 1 -8.955-2.506 18.767 18.767 0 0 0 -10.441-2.894 17.614 17.614 0 0 0 -17.485 15.855c-1.116 10.448 1.809 20.188 8.237 27.429 6.357 7.16 15.561 11.36 26.08 11.948a25.8 25.8 0 0 0 -.294 12.868h-6.642a4.466 4.466 0 0 0 -1.686.334c-20.787-3.115-33.72-16.709-33.782-35.576zm46.4 13.849a28.71 28.71 0 0 0 -3.007 5.559c-10.058-.369-18.844-4.241-24.826-10.974-5.86-6.6-8.522-15.521-7.5-25.118a14.619 14.619 0 0 1 14.5-13.174 16.018 16.018 0 0 1 8.982 2.516 18.657 18.657 0 0 0 10.414 2.884 18.656 18.656 0 0 0 10.413-2.884 16.018 16.018 0 0 1 8.982-2.516 14.621 14.621 0 0 1 14.5 13.174 34.166 34.166 0 0 1 -1.625 15.088 41.7 41.7 0 0 0 -19.823 5.451c-3.2-.641-4.235-1.8-6.014-4.483a4.5 4.5 0 0 0 -8.253 2.628 24.837 24.837 0 0 0 3.254 11.849zm-10.932 31.393a1.5 1.5 0 0 1 -1.5-1.5v-4a1.5 1.5 0 0 1 1.5-1.5h7.52a28.6 28.6 0 0 0 3.682 7zm42.967 12.125c-18.748 0-34-12.561-34-28a24.368 24.368 0 0 1 4.959-14.552 1.5 1.5 0 0 0 .066-1.689 21.847 21.847 0 0 1 -3.312-11.219 1.452 1.452 0 0 1 1.05-1.475 1.428 1.428 0 0 1 1.7.6c2.052 3.1 3.651 5.044 8.541 5.882a1.488 1.488 0 0 0 1.025-.191 38.785 38.785 0 0 1 19.971-5.356c18.748 0 34 12.561 34 28s-15.252 28-34 28z"/><path d="m71.5 91.5a5.5 5.5 0 1 0 5.5 5.5 5.506 5.506 0 0 0 -5.5-5.5zm0 8a2.5 2.5 0 1 1 2.5-2.5 2.5 2.5 0 0 1 -2.5 2.5z"/><path d="m91.5 91.5a5.5 5.5 0 1 0 5.5 5.5 5.506 5.506 0 0 0 -5.5-5.5zm0 8a2.5 2.5 0 1 1 2.5-2.5 2.5 2.5 0 0 1 -2.5 2.5z"/><path d="m110.5 91.5a5.5 5.5 0 1 0 5.5 5.5 5.506 5.506 0 0 0 -5.5-5.5zm0 8a2.5 2.5 0 1 1 2.5-2.5 2.5 2.5 0 0 1 -2.5 2.5z"/></g></g></svg>