<svg clip-rule="evenodd" fill-rule="evenodd" height="512" image-rendering="optimizeQuality" shape-rendering="geometricPrecision" text-rendering="geometricPrecision" viewBox="0 0 6.82666 6.82666" width="512" xmlns="http://www.w3.org/2000/svg"><g id="Layer_x0020_1"><g id="_407849064"><g><path id="_407850696" d="m3.97167 5.59377h-1.11667c-.0294567 0-.0533307-.023874-.0533307-.0533346s.023874-.0533307.0533307-.0533307h1.11667c.0294606 0 .0533346.0238701.0533346.0533307s-.023874.0533346-.0533346.0533346z"/></g><g><path id="_407850648" d="m4.509 3.8181h-.0761102c-.0294606 0-.0533346-.023874-.0533346-.0533346 0-.0294567.023874-.0533307.0533346-.0533307h.0761102c.0526654 0 .105138-.0233071.140343-.0623386.0290157-.0321339.042752-.0715394.0386929-.110957l-.227146-2.20822h-2.10875l-.227181 2.20819c-.00405906.0394331.00969685.0788346.0387087.110984.0352244.0390315.0876772.0623228.140346.0623228h.0761142c.0294567 0 .0533307.023874.0533307.0533307 0 .0294606-.023874.0533346-.0533307.0533346h-.0761102c-.0823622 0-.164429-.0364567-.219543-.0975276-.0495-.0548465-.0727992-.123512-.065626-.193346l.232098-2.25607c.00280315-.0271969.0257047-.047874.0530551-.047874l2.205-.00000787c.0273465 0 .050252.020685.0530394.047874l.232094 2.25608c.00720866.0698189-.0160984.138484-.0655945.193346-.0550945.0610827-.137177.0975433-.219539.0975433z"/></g><g><path id="_407850264" d="m2.30396 1.33212c-.0096378 0-.0193898-.00261024-.0281772-.00809843-.0249882-.0155866-.0326102-.0484882-.0170276-.0734685l.232106-.372098c.00974016-.015626.0268465-.0251102.045248-.0251102h1.7408c.0183622 0 .0354449.00944094.0451969.0250118l.232098.370331c.0156378.0249606.00808268.057874-.016878.0735118-.0249843.015626-.0578622.00809843-.0735118-.016874l-.216421-.345299h-1.68169l-.216445.346984c-.0101102.0162087-.0275.0251102-.0452913.0251102z"/></g><g><path id="_407850552" d="m2.85527 2.09153c-.14739 0-.267303-.119898-.267303-.267303 0-.147406.119913-.267307.267303-.267307s.267307.119902.267307.267307c0 .147406-.119921.267303-.267307.267303zm0-.427937c-.0885669 0-.160638.0720551-.160638.160638 0 .0885827.0720669.160638.160638.160638.0885709 0 .160638-.0720551.160638-.160638 0-.0885827-.0720709-.160638-.160638-.160638z"/></g><g><path id="_407850432" d="m3.95776 2.09153c-.14739 0-.267307-.119898-.267307-.267303 0-.147406.119917-.267307.267307-.267307s.267287.119902.267287.267307c0 .147406-.119898.267303-.267287.267303zm0-.427937c-.0885827 0-.160642.0720551-.160642.160638 0 .0885827.0720591.160638.160642.160638.088563 0 .160622-.0720551.160622-.160638 0-.0885827-.0720512-.160638-.160622-.160638z"/></g><g><path id="_407850168" d="m3.43551 2.75519h-.0580276c-.317374 0-.575547-.258193-.575547-.575551v-.355398c0-.0294606.023874-.0533307.0533307-.0533307.0294606 0 .0533346.0238701.0533346.0533307v.355398c0 .258555.210343.468902.468898.468902h.0580276c.258551 0 .468913-.210346.468913-.468902v-.355398c0-.0294606.023874-.0533307.0533346-.0533307.0294567 0 .0533307.0238701.0533307.0533307v.355398c-.00001575.317358-.258224.575551-.575594.575551z"/></g><g><path id="_407850504" d="m4.53522 4.87102h-2.24378c-.0294606 0-.0533346-.023874-.0533346-.0533346s.023874-.0533346.0533346-.0533346h2.24378c.0294567 0 .0533307.023874.0533307.0533346s-.023874.0533346-.0533307.0533346z"/></g><g><path id="_407849736" d="m5.40251 5.21496c-.0294567 0-.0533307-.023874-.0533307-.0533307v-2.94559h-.749024c-.0294606 0-.0533346-.023874-.0533346-.0533346s.023874-.0533346.0533346-.0533346h.802354c.0294606 0 .0533346.023874.0533346.0533346v2.99892c0 .0294567-.0238661.0533307-.0533346.0533307zm-3.97836 0c-.0294567 0-.0533307-.023874-.0533307-.0533307v-2.99892c0-.0294606.023874-.0533346.0533307-.0533346h.788693c.0294606 0 .0533346.023874.0533346.0533346s-.023874.0533346-.0533346.0533346h-.735358v2.94559c0 .0294567-.023874.0533307-.0533346.0533307z"/></g><g><path id="_407849208" d="m5.49173 5.97331h-4.15685c-.130406 0-.236488-.106098-.236488-.236484v-.575937c0-.0294606.023874-.0533346.0533346-.0533346h4.52317c.0294606 0 .0533346.023874.0533346.0533346v.575937c0 .130386-.106098.236484-.236504.236484zm-4.28667-.759106v.522606c0 .0715866.0582362.129831.129831.129831l4.15686.00000394c.0715866 0 .129831-.0582323.129831-.129831v-.522602l-4.41652-.00000787z"/></g><g><path id="_407849400" d="m1.14441 3.03266c-.0294606 0-.0533307-.0238701-.0533307-.0533307v-.816618c0-.0294606.0238701-.0533346.0533307-.0533346s.0533346.023874.0533346.0533346v.816618c0 .0294488-.023874.0533307-.0533346.0533307z"/></g><g><path id="_407849592" d="m5.68226 4.88722c-.0294606 0-.0533346-.0238701-.0533346-.0533307v-.816618c0-.0294606.023874-.0533346.0533346-.0533346.0294567 0 .0533307.023874.0533307.0533346v.816618c0 .0294764-.023874.0533307-.0533307.0533307z"/></g><g><path id="_407849520" d="m3.40651 4.48673c-.284315 0-.552358-.0718307-.754744-.202264-.20965-.135122-.32511-.317161-.32511-.512602 0-.195457.115461-.3775.32511-.512606.202386-.130429.470445-.20226.754744-.20226.284303 0 .55237.0718307.75476.20226.209654.135114.325094.317154.325094.512606 0 .0998898-.0299134.19598-.089.286067l.143669.338843c.0083622.0197047.00412598.0425118-.010752.0578858-.0148622.0153937-.0375118.0204331-.0575.0127087l-.375929-.14465c-.193232.105917-.43722.164012-.690343.164012zm0-1.32306c-.536618 0-.973189.272843-.973189.608205s.436579.608205.973189.608205c.244555 0 .478705-.057626.659315-.162291.0139567-.00810236.0308425-.00941732.0458898-.0036378l.282055.108528-.106043-.250106c-.00729134-.0172244-.00503937-.0370157.00594488-.0521535.0570787-.0786496.0860394-.162291.0860394-.248555-.00001575-.335366-.436594-.608193-.973201-.608193z"/></g><g><g><path id="_407849688" d="m2.85489 3.97917c-.114303 0-.207303-.0929843-.207303-.207303 0-.114323.093-.207319.207303-.207319s.207307.0930039.207307.207319c0 .114311-.0929961.207303-.207307.207303zm0-.307941c-.0555 0-.10065.0451575-.10065.100654 0 .0554843.0451535.100638.10065.100638.0554961 0 .10065-.0451535.10065-.100638-.00000787-.0555039-.0451654-.100654-.10065-.100654z"/></g><g><path id="_407849472" d="m3.40651 3.97917c-.114303 0-.207303-.0929843-.207303-.207303 0-.114323.093-.207319.207303-.207319s.207319.0930039.207319.207319c0 .114311-.0930157.207303-.207319.207303zm0-.307941c-.0555 0-.10065.0451575-.10065.100654 0 .0554843.0451535.100638.10065.100638.0555039 0 .10065-.0451535.10065-.100638 0-.0555039-.0451457-.100654-.10065-.100654z"/></g><g><path id="_407849016" d="m3.95812 3.97917c-.114307 0-.207307-.0929843-.207307-.207303 0-.114323.0929843-.207319.207307-.207319.114319 0 .207315.0930039.207315.207319 0 .114311-.0929961.207303-.207315.207303zm0-.307941c-.0554882 0-.100642.0451575-.100642.100654 0 .0554843.0451535.100638.100642.100638.0555 0 .10065-.0451535.10065-.100638 0-.0555039-.0451496-.100654-.10065-.100654z"/></g></g><g><g><path id="_407848536" d="m5.13415 3.253c-.0294606 0-.0533346-.023874-.0533346-.0533346v-.749992c0-.0294606.023874-.0533307.0533346-.0533307.0294567 0 .0533307.0238701.0533307.0533307v.749992c0 .0294606-.023874.0533346-.0533307.0533346z"/></g><g><path id="_407848704" d="m1.69251 4.92799c-.0294606 0-.0533346-.023874-.0533346-.0533307v-.749996c0-.0294567.023874-.0533307.0533346-.0533307s.0533307.023874.0533307.0533307v.749996c0 .0294567-.0238858.0533307-.0533307.0533307z"/></g></g></g></g></svg>