<svg clip-rule="evenodd" fill-rule="evenodd" stroke-linejoin="round" stroke-miterlimit="2" viewBox="0 0 510 510" xmlns="http://www.w3.org/2000/svg"><path d="m186.744 415.987h-94.005c-20.615 0-37.49-16.876-37.49-37.49v-202.814c0-20.614 16.875-37.49 37.49-37.49h9.846c1.031-6.901 2.52-13.654 4.436-20.225-3.999.935-8.123-1.335-9.42-5.311-1.369-4.198.927-8.717 5.125-10.087l14.703-4.796c3.629-1.184 7.589.361 9.457 3.689l7.572 13.486c2.161 3.85.79 8.731-3.06 10.892-3.207 1.801-7.128 1.151-9.598-1.341-3.202 11.662-4.912 23.939-4.912 36.612 0 76.225 61.886 138.111 138.112 138.111 18.649 0 36.44-3.702 52.676-10.415 4.08-1.687 8.762.256 10.449 4.336 1.687 4.081-.256 8.763-4.336 10.45-18.12 7.492-37.975 11.629-58.789 11.629-79.052 0-144.282-59.649-153.098-136.355h-6.004v171.457h318.204v-171.457h-6.005c-1.54 13.402-4.804 26.284-9.561 38.418 3.362.007 6.491 2.151 7.59 5.52 1.369 4.198-.927 8.718-5.125 10.087l-14.703 4.797c-3.629 1.183-7.589-.361-9.457-3.69l-7.572-13.486c-2.161-3.85-.79-8.731 3.06-10.892 3.825-2.148 8.667-.809 10.849 2.984 6.408-15.916 9.934-33.297 9.934-51.494 0-76.226-61.886-138.112-138.112-138.112-23.569 0-45.767 5.915-65.188 16.343-3.89 2.089-8.744.627-10.833-3.263-2.088-3.89-.626-8.744 3.264-10.833 21.676-11.64 46.451-18.247 72.757-18.247 77.269 0 141.333 56.99 152.416 131.193h9.845c20.615 0 37.49 16.876 37.49 37.49v202.814c0 20.614-16.875 37.49-37.49 37.49h-93.979v30.851h36.873c18.659 0 33.143 13.169 33.143 28.068v20.094c0 4.418-3.581 8-8 8h-260.57c-4.419 0-8-3.582-8-8v-20.094c0-14.899 14.484-28.068 33.143-28.068h36.873zm-85.703-261.794h-8.302c-11.817 0-21.49 9.674-21.49 21.49v202.814c0 11.817 9.673 21.49 21.49 21.49h324.522c11.817 0 21.49-9.673 21.49-21.49v-202.814c0-11.816-9.673-21.49-21.49-21.49h-8.302c.101 2.294.153 4.6.153 6.919 0 .586-.004 1.171-.01 1.756h8.914c6.621 0 12.086 5.389 12.086 12.087v183.37c0 4.418-3.581 8-8 8h-334.204c-4.419 0-8-3.582-8-8v-183.37c0-6.684 5.429-12.087 12.112-12.087h8.888c-.006-.585-.01-1.17-.01-1.756 0-2.319.052-4.625.153-6.919zm206.241 261.794h-104.538v30.851h104.538zm-174.554 71.013h244.57v-12.094c0-7.192-8.136-12.068-17.143-12.068h-210.284c-9.007 0-17.143 4.876-17.143 12.068zm150.887-427.328c7.98 2.244 15.658 5.425 22.895 9.488l14.686-6.53c3.025-1.345 6.566-.688 8.907 1.653l21.725 21.725c2.338 2.339 2.997 5.874 1.658 8.897 0 0-6.507 14.69-6.507 14.69 4.067 7.244 7.25 14.931 9.495 22.936l14.977 5.764c3.089 1.189 5.126 4.157 5.126 7.467v30.731c0 3.309-2.037 6.277-5.126 7.466 0 0-14.981 5.765-14.981 5.765-2.249 7.98-5.445 15.658-9.495 22.895l6.511 14.699c1.339 3.023.68 6.559-1.658 8.897l-21.725 21.725c-2.338 2.338-5.874 2.997-8.897 1.658 0 0-14.685-6.505-14.684-6.505-7.227 4.063-14.923 7.246-22.91 9.49l-5.765 14.979c-1.189 3.089-4.157 5.127-7.466 5.127h-30.731c-3.31 0-6.277-2.038-7.466-5.127 0 0-5.765-14.978-5.764-14.977-8.003-2.249-15.687-5.447-22.927-9.498l-14.699 6.511c-3.023 1.339-6.559.68-8.897-1.658l-21.725-21.725c-2.341-2.341-2.998-5.882-1.653-8.907 0 0 6.527-14.681 6.527-14.681-4.061-7.223-7.245-14.916-9.506-22.899l-14.991-5.769c-3.089-1.189-5.126-4.157-5.126-7.466v-30.731c0-3.31 2.037-6.278 5.126-7.467 0 0 14.988-5.768 14.988-5.767 2.262-8.003 5.447-15.686 9.511-22.926l-6.529-14.686c-1.345-3.026-.688-6.567 1.653-8.908l21.725-21.725c2.341-2.341 5.882-2.998 8.907-1.653 0 0 14.686 6.53 14.686 6.53 7.239-4.064 14.92-7.246 22.902-9.49l5.794-15.016c1.191-3.085 4.157-5.12 7.464-5.12h30.731c3.311 0 6.28 2.04 7.468 5.131zm-13.46 9.579s-5.27-13.717-5.27-13.717h-19.747l-5.297 13.727c-.949 2.46-3.049 4.294-5.614 4.903-9.198 2.186-17.97 5.82-26.032 10.788-2.248 1.385-5.034 1.572-7.447.499l-13.423-5.968s-13.954 13.953-13.954 13.953l5.969 13.424c1.072 2.412.886 5.199-.5 7.447-4.971 8.068-8.606 16.847-10.822 26.08-.615 2.56-2.449 4.653-4.906 5.599l-13.689 5.269v19.744l13.689 5.269c2.455.945 4.289 3.036 4.904 5.594 2.216 9.201 5.848 18.006 10.818 26.044 1.391 2.249 1.58 5.041.506 7.457l-5.969 13.424 13.96 13.959 13.427-5.948c2.404-1.064 5.178-.88 7.42.493 8.067 4.943 16.843 8.61 26.075 10.797 2.569.609 4.673 2.447 5.621 4.911l5.269 13.69h19.745l5.269-13.69c.947-2.462 3.049-4.299 5.616-4.909 9.194-2.185 17.991-5.816 26.021-10.781 2.246-1.389 5.033-1.58 7.448-.511l13.427 5.948 13.966-13.965-5.948-13.428c-1.065-2.404-.881-5.177.493-7.419 4.943-8.068 8.611-16.845 10.798-26.049.61-2.568 2.447-4.669 4.91-5.617l13.689-5.269v-19.744l-13.689-5.269c-2.465-.949-4.302-3.052-4.911-5.622-2.186-9.225-5.819-17.996-10.787-26.057-1.383-2.245-1.571-5.026-.503-7.437l5.948-13.428s-13.96-13.959-13.96-13.959l-13.423 5.968c-2.413 1.073-5.199.886-7.447-.499-8.062-4.968-16.834-8.602-26.032-10.788-2.569-.61-4.671-2.449-5.618-4.913zm-15.155 9.49c45.482 0 82.37 36.889 82.37 82.371 0 45.481-36.888 82.37-82.37 82.37s-82.37-36.889-82.37-82.37c0-45.482 36.888-82.371 82.37-82.371zm-51.878 40.977c-7.501 9.387-12.507 20.853-14.015 33.394h14.65c.865-10.497 3.452-20.518 7.476-29.779-2.812-1.088-5.524-2.293-8.111-3.615zm20.429-17.064c-2.847 1.535-5.569 3.272-8.147 5.192 1.129.479 2.278.934 3.448 1.367 1.475-2.254 3.043-4.443 4.699-6.559zm71.051 5.197c-2.573-1.917-5.289-3.651-8.129-5.184 1.652 2.112 3.218 4.296 4.69 6.546 1.166-.431 2.313-.885 3.439-1.362zm26.291 45.261c-1.507-12.538-6.511-24.001-14.008-33.386-2.585 1.318-5.292 2.52-8.1 3.607 4.027 9.26 6.616 19.282 7.483 29.779zm-14.023 49.404c7.505-9.389 12.515-20.859 14.023-33.404h-14.645c-.88 10.409-3.435 20.452-7.479 29.798 2.809 1.086 5.516 2.288 8.101 3.606zm-20.32 16.998c2.805-1.518 5.487-3.233 8.03-5.125-1.115-.472-2.251-.922-3.406-1.349-1.448 2.219-2.99 4.379-4.624 6.474zm-71.124-5.12c2.548 1.895 5.237 3.613 8.048 5.133-1.637-2.099-3.183-4.263-4.634-6.487-1.157.428-2.296.88-3.414 1.354zm-26.319-45.282c1.509 12.548 6.521 24.021 14.029 33.411 2.588-1.321 5.3-2.525 8.112-3.613-4.041-9.346-6.592-19.39-7.471-29.798zm37.594-41.162c-3.614 7.789-5.992 16.261-6.878 25.162h27.177v-22.395c-6.914-.401-13.749-1.323-20.299-2.767zm20.299-26.79c-4.322 3.711-8.24 7.88-11.677 12.432 3.822.669 7.731 1.138 11.677 1.407zm27.691 12.431c-3.442-4.557-7.365-8.731-11.691-12.446v13.854c3.95-.269 7.865-.738 11.691-1.408zm15.511 39.521c-.888-8.901-3.268-17.374-6.885-25.163-6.557 1.445-13.398 2.367-20.317 2.768v22.395zm-6.905 41.183c3.633-7.864 5.982-16.357 6.881-25.183h-27.178v22.419c6.913.401 13.747 1.322 20.297 2.764zm-20.297 26.82c4.372-3.747 8.288-7.926 11.701-12.455-3.829-.671-7.747-1.141-11.701-1.411zm-27.688-12.456c3.409 4.524 7.32 8.698 11.688 12.441v-13.85c-3.949.269-7.863.739-11.688 1.409zm-15.465-39.547c.897 8.826 3.243 17.318 6.873 25.182 6.544-1.441 13.373-2.362 20.28-2.762v-22.42z"/></svg>