<svg id="Layer_1" enable-background="new 0 0 512 512" height="512" viewBox="0 0 512 512" width="512" xmlns="http://www.w3.org/2000/svg"><path d="m323.282 358.342c2.398 2.398 6.121 2.398 8.521.119l17.89-17.887h41.778c63.143 0 114.525-51.381 114.525-114.523 0-63.145-51.383-114.523-114.525-114.523-8.29 0-16.328.842-24.014 2.52-17.285-48.371-62.662-80.551-114.4-80.551-66.989 0-121.488 54.504-121.488 121.484v.844c-9.846-3.359-20.166-5.158-30.613-5.158-52.336 0-94.953 42.613-94.953 95.07 0 52.338 42.617 94.838 94.953 94.838h61.227l17.887 17.887c2.4 2.279 6.242 2.279 8.521-.119l4.685-4.563v11.043l-67.585 30.611c-2.158.959-3.6 3.125-3.6 5.521v29.893c-10.446 2.641-18.129 12.123-18.129 23.406 0 13.328 10.803 24.25 24.248 24.25 13.324 0 24.246-10.922 24.246-24.25 0-11.283-7.803-20.766-18.245-23.406v-26.051l67.585-30.49c2.162-.963 3.604-3.121 3.604-5.521v-22.451c8.163 4.682 16.807 8.166 25.932 10.322v19.453c0 3.361 2.76 6 6.121 6h12.484v22.326c-10.441 2.643-18.253 12.248-18.253 23.529 0 13.322 10.927 24.129 24.374 24.129 13.326 0 24.13-10.807 24.13-24.129 0-11.281-7.683-20.764-18.128-23.529v-22.326h12.486c3.24 0 6-2.639 6-6v-19.453c9.121-2.156 17.89-5.758 26.053-10.322v22.451c0 2.4 1.438 4.559 3.598 5.521l67.469 30.49v26.051c-10.445 2.641-18.252 12.123-18.252 23.406 0 13.328 10.923 24.25 24.371 24.25 13.327 0 24.128-10.922 24.128-24.25 0-11.283-7.681-20.766-18.125-23.406v-29.893c0-2.396-1.44-4.563-3.602-5.521l-67.466-30.611v-10.924zm-182.942 95.912c0 6.729-5.411 12.127-12.13 12.127-6.723 0-12.125-5.398-12.125-12.127 0-6.719 5.402-12.119 12.125-12.119 6.719 0 12.13 5.4 12.13 12.119zm127.725-26.289c0 6.605-5.406 12.006-12.008 12.006-6.723 0-12.244-5.4-12.244-12.006 0-6.723 5.521-12.242 12.244-12.242 6.602 0 12.008 5.519 12.008 12.242zm127.723 26.289c0 6.729-5.399 12.127-12.004 12.127-6.724 0-12.242-5.398-12.242-12.127 0-6.719 5.519-12.119 12.242-12.119 6.605 0 12.004 5.4 12.004 12.119zm-377.66-208.518c0-45.732 37.1-82.949 82.828-82.949 11.887 0 23.652 2.643 34.7 7.684 1.92.84 4.194.6 5.878-.598 1.801-1.201 2.762-3.244 2.642-5.402-.241-3.605-.482-6.486-.482-9.49 0-60.258 49.101-109.357 109.364-109.357 48.379 0 90.389 31.092 104.559 77.428.959 3.123 4.318 4.924 7.445 3.963 8.277-2.156 17.16-3.361 26.41-3.361 56.418 0 102.396 45.979 102.396 102.398s-45.978 102.397-102.396 102.397h-31.693c0-.119.121-.359.121-.482 0-1.678-.604-3.121-1.804-4.32l-13.684-13.686c5.517-9.121 9.483-18.848 12.006-29.166h19.443c3.245 0 6.003-2.645 6.003-6.006v-37.096c0-3.359-2.758-6.119-6.003-6.119h-19.443c-2.403-10.205-6.489-19.926-12.006-28.932l13.684-13.807c1.2-1.078 1.804-2.643 1.804-4.201 0-1.68-.604-3.242-1.804-4.32l-26.292-26.295c-2.277-2.395-6.123-2.395-8.521 0l-13.688 13.689c-9-5.404-18.845-9.484-29.049-12.004v-19.328c0-3.359-2.76-6.121-6-6.121h-37.094c-3.361 0-6.121 2.762-6.121 6.121v19.328c-10.206 2.52-19.93 6.482-28.937 12.004l-13.804-13.689c-2.279-2.395-6.121-2.395-8.521 0l-26.293 26.295c-2.395 2.4-2.395 6.246 0 8.521l13.689 13.807c-5.523 9.006-9.484 18.727-12.01 28.932h-19.318c-3.368 0-6.125 2.76-6.125 6.119v37.096c0 3.361 2.757 6.006 6.125 6.006h19.318c2.525 10.318 6.486 20.045 12.01 29.166l-13.689 13.686c-1.194 1.199-1.798 2.643-1.798 4.32 0 .123.122.363.122.482h-51.145c-45.727 0-82.827-37.094-82.827-82.713zm255.215 100.119c-2.879.6-4.919 3.123-4.919 6.002v18.123h-24.968v-18.123c0-2.879-2.043-5.402-4.92-6.002-12.014-2.279-23.293-6.967-33.615-13.924-2.402-1.68-5.641-1.318-7.688.717l-12.842 12.846-14.885-14.76c-.359-.365-.604-.604-.965-.965l-1.918-1.803 12.846-12.963c2.044-2.039 2.396-5.164.717-7.564-6.836-10.324-11.52-21.725-13.923-33.854-.479-2.881-2.997-4.92-5.881-4.92h-18.252v-24.969h18.253c2.884 0 5.401-2.039 5.881-4.922 2.278-12.006 7.087-23.287 13.923-33.611 1.68-2.402 1.327-5.646-.717-7.684l-12.846-12.846 17.768-17.766 12.842 12.844c2.047 2.158 5.285 2.402 7.688.842 10.322-6.963 21.602-11.643 33.615-14.047 2.877-.48 4.92-3.002 4.92-5.881v-18.246h24.968v18.246c0 2.879 2.04 5.4 4.919 5.881 12.006 2.404 23.652 7.207 33.613 13.924 2.4 1.684 5.643 1.439 7.682-.719l12.967-12.844 17.646 17.766-12.846 12.846c-2.04 2.037-2.396 5.281-.72 7.684 6.967 10.324 11.645 21.605 13.926 33.611.6 2.883 3.002 4.922 6.002 4.922h18.128v24.969h-18.128c-3 0-5.402 2.039-6.002 4.92-2.281 12.129-7.082 23.529-13.926 33.854-1.677 2.4-1.32 5.525.72 7.564l12.846 12.963-1.921 1.803c-.359.361-.602.6-.957.965l-14.768 14.76-10.084-9.963c-.358-.477-.725-.959-1.204-1.32l-1.679-1.563c-2.039-2.035-5.281-2.396-7.682-.717-9.962 6.84-21.608 11.645-33.614 13.924zm-17.285-157.261c-37.332 0-67.705 30.377-67.705 67.707 0 37.213 30.373 67.586 67.705 67.586 37.217 0 67.584-30.373 67.584-67.586 0-37.33-30.368-67.707-67.584-67.707zm0 123.166c-30.609 0-55.58-24.848-55.58-55.459 0-30.609 24.971-55.576 55.58-55.576 30.611 0 55.463 24.967 55.463 55.576 0 30.611-24.852 55.459-55.463 55.459zm35.172-87.75c2.64 2.041 3.243 5.764 1.2 8.404l-42.014 54.98c-1.082 1.318-2.521 2.16-4.084 2.4-.239 0-.479 0-.72 0-1.438 0-2.762-.48-3.843-1.322l-21.247-17.166c-2.644-2.16-2.998-5.881-.958-8.52 2.162-2.641 6.001-3.004 8.521-.965l16.446 13.326 38.178-50.059c2.038-2.637 5.886-3.119 8.521-1.078z"/></svg>