<svg clip-rule="evenodd" fill-rule="evenodd" height="512" image-rendering="optimizeQuality" shape-rendering="geometricPrecision" text-rendering="geometricPrecision" viewBox="0 0 6.82666 6.82666" width="512" xmlns="http://www.w3.org/2000/svg"><g id="Layer_x0020_1"><g id="_445738168"><path id="_445743880" d="m4.05348 2.56346c-.0315394 0-.0600945-.0215906-.067563-.0535945l-.0789764-.338228c-.00867323-.0372992.0144252-.0746063.0517638-.083315.0373307-.00874803.0746614.0144646.0833346.0517638l.0790197.338209c.00867323.037315-.0144724.074626-.0518031.0833346-.0052874.00123622-.0105984.00184252-.0157756.00183071z"/><path id="_445739776" d="m3.81565 2.54746c-.0149606 0-.0300118-.0047874-.0426614-.0146772l-.201217-.157012c-.016878-.0131535-.0266378-.0333189-.0266378-.0546811 0-.021378.00975984-.0415472.0266142-.054689l.201248-.157004c.0302402-.0235748.0738189-.0181969.0973031.0120079.0236024.0301929.018185.0738031-.0119213.0973661l-.13115.102319.13115.102319c.0301063.023563.0355236.0671535.0119213.0973583-.0135984.0175315-.0340827.0267008-.0546496.0266929z"/><path id="_445739056" d="m4.21235 2.54746c-.0205945 0-.0409724-.00916142-.0546929-.0266929-.0235906-.0302126-.018185-.0737913.0120394-.0973583l.131047-.102319-.131043-.102319c-.0302126-.0235709-.0356535-.0671614-.0120433-.0973661s.0671969-.035563.0973031-.0120079l.201264.156996c.0168543.0131457.0267087.0333228.0267087.0546969.00000787.0213543-.00987402.0415354-.0267323.054689l-.201228.156996c-.0126535.00988976-.0277126.0146929-.042622.014685z"/><path id="_445738720" d="m5.67992 5.15068h-4.53317c-.243031 0-.440661-.197693-.440661-.440685l.00001181-3.23357c0-.243004.197614-.440681.440646-.440681l.629878-.00000787c.0382835 0 .0693465.0310669.0693465.069378.00001968.0383071-.0310709.0693701-.0693701.0693701l-.62985-.00001181c-.166535 0-.301921.135461-.301921.301953l.00000787 3.23356c0 .1665.135354.301957.301909.301957h4.53317c.166535 0 .301898-.135449.301898-.301945l.00001575-3.23357c0-.166492-.135382-.301941-.301937-.301941l-1.6659-.00001181c-.038315 0-.0693937-.0310472-.0693937-.0693583.00002756-.038315.0310748-.0693701.0693701-.0693701l1.66595-.00000787c.243004 0 .440634.197697.440634.440689l.00001575 3.23356c0 .242996-.197646.440697-.44065.440697z"/><path id="_445738696" d="m5.58706 4.68653h-4.34744c-.0382874 0-.0693819-.0310551-.0693819-.0693622l.00001181-3.04792c0-.0382992.0310591-.0693622.0693543-.0693622l.537028-.00000787c.0382835 0 .0693465.0310709.0693465.069378.00001968.0383071-.0310709.0693701-.0693701.0693701l-.467622-.00001181v2.90918h4.20871v-2.90918h-.794134c-.0382874 0-.069374-.0310472-.069374-.0693583.00000394-.0383071.0310748-.0693701.0693701-.0693701l.863504-.00000787c.0384252 0 .0693543.0310709.0693543.069378l.00001575 3.04791c0 .0383031-.0309685.0693701-.0693701.0693661z"/><path id="_445739008" d="m2.79233 5.97843c-.00528346 0-.0107205-.00060236-.0162677-.0019252-.0371929-.00891339-.0602126-.0463661-.051185-.0837008l.198496-.827693c.00902362-.0372441.0463465-.0601732.0836811-.0512598.0372244.00892126.0602126.0463898.0512992.0836378l-.198579.827709c-.00758661.0317874-.0361339.0532323-.0674449.0532323z"/><path id="_445738984" d="m4.03218 5.97843c-.0314291 0-.059874-.021437-.0674606-.0532283l-.198575-.827724c-.00891732-.0372441.0140748-.0746929.0512874-.083626.0372402-.00896063.0746693.0140157.0837008.0512677l.198496.827685c.00901969.0373268-.0139961.0747913-.0512087.0837008-.00553543.00131496-.0109606.0019252-.0162402.0019252z"/><path id="_445738816" d="m2.55052 6.30383h1.72564v-.162705c0-.0897165-.0729843-.162689-.162709-.162689h-1.40024c-.0897205 0-.162709.0729843-.162709.162705l.00001968.162689zm1.79501.13874h-1.86438c-.038315 0-.0693858-.0310591-.0693858-.0693583l.00001968-.232087c0-.166181.135224-.301421.301417-.301421l1.40028-.00000394c.166181 0 .301417.135248.301417.301441l.00000787.232059c0 .0383031-.0310827.069378-.0693701.0693701z"/><path id="_445738624" d="m3.75362 4.26583h-1.71662c-.181874 0-.329764-.147917-.329764-.329744l.00001968-3.22224c0-.181819.14787-.329748.32972-.329748l1.71665-.00000787c.181846 0 .32972.147937.32972.329764l.00002362.574988c0 .0383189-.0310945.0693819-.0693937.0693819-.0382913-.00001181-.0693701-.031063-.0693701-.0693701l.00002756-.575008c0-.105327-.0856457-.191012-.191028-.191012l-1.7166-.00000787c-.105382 0-.191028.0857008-.191028.191028l.00001968 3.22222c0 .105339.0856063.191028.190984.191028l1.71665-.00000787c.105382 0 .19098-.0856772.19098-.191008l.00002756-.575012c0-.038315.0310472-.0693543.0693425-.0693543.038315-.00001575.0693701.0310472.0693701.0693661l.00002362.574988c0 .181835-.147913.329764-.329744.329756z"/><path id="_445738552" d="m4.014.902783h-2.23737c-.0384252 0-.0693898-.0310394-.0693898-.0693583.00001968-.0383228.0309488-.0693583.0693661-.0693583l2.23739-.00000394c.0382913 0 .0693465.0310472.0693465.0693622.00002362.0383031-.0310709.0693661-.0693465.0693583z"/><path id="_445738456" d="m4.014 3.88588h-2.23737c-.0384252 0-.0693898-.0310472-.0693898-.0693543.00001968-.0383307.0309488-.0693701.0693661-.0693701h2.23739c.0382913 0 .0693465.0310472.0693465.0693701.00002362.0382992-.0310709.0693583-.0693465.0693543z"/><path id="_445738792" d="m3.93355 3.29171h.160898v-.155386c0-.0334803.0238228-.0621811.0568189-.0682165.104898-.0192638.202807-.0598661.291083-.120697.0275827-.0190157.0647953-.015622.0884016.00805906l.109949.109941.113697-.113713-.109823-.109921c-.0237362-.0236811-.0271181-.0608858-.00809055-.0884409.0608228-.0881614.101406-.186102.120673-.291118.00601969-.0329331.034685-.0568307.0681654-.0568307l.1555-.00000394v-.160807h-.155484c-.0334921 0-.0621614-.0239291-.0681811-.0568661-.0192598-.104957-.0598543-.202894-.120673-.29111-.0190079-.027563-.0156535-.0647638.00807087-.0884449l.109843-.109937-.113697-.113701-.109933.109937c-.0235984.0236811-.0608386.027063-.0884173.00806299-.0881496-.060811-.186067-.101409-.291083-.120673-.0329724-.00603937-.0568425-.034748-.0568425-.0682283l.00002362-.155398h-.160898v.15539c0 .0334882-.0238661.062189-.0568622.0682362-.104882.0192441-.202807.0598661-.291083.120693-.0275669.0189961-.0646732.0156063-.0883976-.00805118l-.109933-.109969-.113701.113701.109961.109961c.0236024.0236693.0270827.060878.00805512.0884449-.060815.0881575-.101524.186118-.120795.291094-.006.0329291-.034685.0568583-.0681614.0568583h-.155346v.160807h.155346c.0334921 0 .0621417.0239213.0682835.0568465.0191614.104921.0598543.202878.120673.291094.0190433.0275551.0155354.0647717-.00807087.0884331l-.109945.109941.113701.113713.109957-.109933c.0236024-.0236811.0609134-.0270591.088374-.00804331.0881654.060815.186185.101429.291201.120701.0328976.00603937.0567244.0347402.0567244.0682205l.00001968.155354zm.230244.138736h-.299508c-.0384213 0-.069374-.0310433-.069374-.0693543l.00000787-.168839c-.0844055-.0211772-.164398-.054378-.239185-.0991457l-.119441.119469c-.0130079.0130039-.0306181.0203189-.0490394.0203189l.00001968-.00001181c-.0184291 0-.0360315-.00729921-.0490354-.0203031l-.211831-.211819c-.0270945-.0270866-.0271063-.0710039-.00001181-.0980906l.119484-.119504c-.0447913-.0747323-.077937-.154776-.0991299-.239055l-.168831-.00000394c-.0382913 0-.0693819-.0310433-.0693819-.0693622l.00001181-.299539c0-.038315.0310591-.0693661.0693583-.0693661h.16885c.0210827-.084315.0543071-.164366.0991102-.239094l-.119461-.119469c-.0270945-.0270827-.0271063-.0710039-.00001181-.0980866l.211858-.211819c.0130079-.0130079.0305748-.020315.049-.020315.0184449-.00001181.0360079.00731102.0490157.0203189l.119465.119476c.074811-.0447756.154878-.0779646.239177-.099126l.00000787-.168878c0-.0382992.0309449-.0693583.0693583-.0693583l.299516-.00000787c.038311 0 .0693661.0310669.0693661.069378v.168846c.0843268.0211772.16439.0543701.239055.0991378l.119492-.119472c.0130079-.0130079.030689-.020315.0489921-.020315.0184252-.00001181.0360079.00731102.0491339.0203189l.211728.211811c.0130079.0130079.0203465.0306535.0203465.0490433.00000394.0183858-.00734646.0360433-.0203543.049063l-.119465.119441c.0448189.074748.0780315.154803.0992323.239106h.168732c.0384252 0 .0693583.0310591.0693583.0693661l.00000787.299531c0 .038315-.0309567.069374-.069374.069374l-.168724-.00000394c-.0211929.0843228-.054437.164378-.0992362.239098l.119476.119449c.0130079.0130197.0203465.0306693.0203465.0490551.00000394.0184016-.00734646.0360472-.0203543.0490512l-.211701.211815c-.0130079.0130039-.0307283.0203189-.0491535.0203189v-.00001181c-.0182913 0-.0360079-.00729921-.0490157-.0203031l-.119449-.119488c-.0747835.0447756-.154772.0779724-.239075.0991299v.168858c0 .038315-.0310709.0693661-.0693661.0693661z"/><path id="_445738384" d="m4.014 1.82496c-.275685 0-.500055.224307-.500055.500008.00000787.275697.224366.500008.500031.500008.275681-.00000394.500031-.224303.500031-.500008.00001575-.275717-.224362-.500004-.500008-.500008zm0 1.13875c-.352154 0-.638791-.286543-.638791-.638744.00000394-.352209.286626-.63874.638768-.63874.352287-.00000394.638768.286543.638768.63874.00001575.352193-.286504.638744-.638744.638744z"/><path id="_445738360" d="m3.57755 1.32979h-1.3645c-.0382874 0-.0693701-.0310472-.0693701-.0693543.00000394-.038315.0310709-.0693701.0693661-.0693701l1.3645-.00001181c.0382835 0 .0693543.0310709.0693543.0693819.00001181.0382992-.0310748.0693661-.0693543.0693543z"/><path id="_445737928" d="m2.96117 1.75561h-.748122c-.0382874 0-.0693701-.0310591-.0693701-.0693661.00000394-.0383189.0310709-.0693583.0693661-.0693583h.748126c.038315 0 .0693622.0310472.0693622.0693583.00000394.0382953-.0310709.0693701-.0693622.0693661z"/><path id="_445737880" d="m2.70502 2.18142h-.491972c-.0382874 0-.0693701-.0310472-.0693701-.0693583.00000394-.0383071.0310709-.0693661.0693661-.0693661l.491976-.00001181c.0382913 0 .0693543.0310709.0693543.069378.00001575.0383071-.0310709.0693701-.0693543.0693583z"/><path id="_445737832" d="m2.75212 2.60724h-.539071c-.0382874 0-.0693701-.0310472-.0693701-.0693543.00000394-.038315.0310709-.0693701.0693661-.0693701l.539075-.00001181c.0382835 0 .0693465.0310709.0693465.0693819.00001968.0383031-.0310709.0693661-.0693465.0693543z"/><path id="_445737760" d="m2.91421 3.03306h-.701165c-.0382874 0-.0693701-.0310394-.0693701-.0693504.00000394-.0383346.0310709-.0693701.0693661-.0693701h.701169c.0382835 0 .0693543.0310472.0693543.0693701.00001181.0382992-.0310748.0693583-.0693543.0693504z"/><path id="_445738024" d="m3.57755 3.45887h-1.3645c-.0382874 0-.0693701-.0310394-.0693701-.0693583.00000394-.038315.0310709-.0693583.0693661-.0693583l1.3645-.00000787c.0382835 0 .0693543.0310551.0693543.0693661.00001181.0383189-.0310748.0693661-.0693543.0693583z"/></g></g></svg>